<mxfile host="app.diagrams.net" modified="2020-12-18T19:09:16.685Z" agent="5.0 (Windows NT 10.0; Win64; x64) AppleWebKit/537.36 (KHTML, like Gecko) Chrome/87.0.4280.88 Safari/537.36" etag="Y8173jhzHT2Vr8r10bBv" version="14.1.1" type="github">
  <diagram name="Page-1" id="9f46799a-70d6-7492-0946-bef42562c5a5">
    <mxGraphModel dx="585" dy="658" grid="1" gridSize="10" guides="1" tooltips="1" connect="1" arrows="1" fold="1" page="1" pageScale="1" pageWidth="1100" pageHeight="850" background="#ffffff" math="0" shadow="0">
      <root>
        <mxCell id="0" />
        <mxCell id="1" parent="0" />
        <mxCell id="ZMdeqj-k6j3ySzZ1tK9_-1" value="User" style="swimlane;html=1;fontStyle=1;align=center;verticalAlign=top;childLayout=stackLayout;horizontal=1;startSize=26;horizontalStack=0;resizeParent=1;resizeLast=0;collapsible=1;marginBottom=0;swimlaneFillColor=#ffffff;rounded=0;shadow=0;comic=0;labelBackgroundColor=none;strokeWidth=1;fillColor=none;fontFamily=Verdana;fontSize=12" vertex="1" parent="1">
          <mxGeometry x="40" y="40" width="280" height="440" as="geometry" />
        </mxCell>
        <mxCell id="ZMdeqj-k6j3ySzZ1tK9_-2" value="+ user: DataTypes.User (DTO)" style="text;html=1;strokeColor=none;fillColor=none;align=left;verticalAlign=top;spacingLeft=4;spacingRight=4;whiteSpace=wrap;overflow=hidden;rotatable=0;points=[[0,0.5],[1,0.5]];portConstraint=eastwest;" vertex="1" parent="ZMdeqj-k6j3ySzZ1tK9_-1">
          <mxGeometry y="26" width="280" height="26" as="geometry" />
        </mxCell>
        <mxCell id="ZMdeqj-k6j3ySzZ1tK9_-7" value="" style="line;html=1;strokeWidth=1;fillColor=none;align=left;verticalAlign=middle;spacingTop=-1;spacingLeft=3;spacingRight=3;rotatable=0;labelPosition=right;points=[];portConstraint=eastwest;" vertex="1" parent="ZMdeqj-k6j3ySzZ1tK9_-1">
          <mxGeometry y="52" width="280" height="8" as="geometry" />
        </mxCell>
        <mxCell id="ZMdeqj-k6j3ySzZ1tK9_-8" value="+ Save()" style="text;html=1;strokeColor=none;fillColor=none;align=left;verticalAlign=top;spacingLeft=4;spacingRight=4;whiteSpace=wrap;overflow=hidden;rotatable=0;points=[[0,0.5],[1,0.5]];portConstraint=eastwest;" vertex="1" parent="ZMdeqj-k6j3ySzZ1tK9_-1">
          <mxGeometry y="60" width="280" height="26" as="geometry" />
        </mxCell>
        <mxCell id="ZMdeqj-k6j3ySzZ1tK9_-9" value="+ Delete()" style="text;html=1;strokeColor=none;fillColor=none;align=left;verticalAlign=top;spacingLeft=4;spacingRight=4;whiteSpace=wrap;overflow=hidden;rotatable=0;points=[[0,0.5],[1,0.5]];portConstraint=eastwest;" vertex="1" parent="ZMdeqj-k6j3ySzZ1tK9_-1">
          <mxGeometry y="86" width="280" height="26" as="geometry" />
        </mxCell>
        <mxCell id="ZMdeqj-k6j3ySzZ1tK9_-12" value="+ GetTeams(): Teams" style="text;html=1;strokeColor=none;fillColor=none;align=left;verticalAlign=top;spacingLeft=4;spacingRight=4;whiteSpace=wrap;overflow=hidden;rotatable=0;points=[[0,0.5],[1,0.5]];portConstraint=eastwest;" vertex="1" parent="ZMdeqj-k6j3ySzZ1tK9_-1">
          <mxGeometry y="112" width="280" height="26" as="geometry" />
        </mxCell>
        <mxCell id="ZMdeqj-k6j3ySzZ1tK9_-13" value="+ GetUpcomingEvents(): Events" style="text;html=1;strokeColor=none;fillColor=none;align=left;verticalAlign=top;spacingLeft=4;spacingRight=4;whiteSpace=wrap;overflow=hidden;rotatable=0;points=[[0,0.5],[1,0.5]];portConstraint=eastwest;" vertex="1" parent="ZMdeqj-k6j3ySzZ1tK9_-1">
          <mxGeometry y="138" width="280" height="26" as="geometry" />
        </mxCell>
        <mxCell id="ZMdeqj-k6j3ySzZ1tK9_-14" value="+ GetEventsAvailableFromTo(from, to): Events" style="text;html=1;strokeColor=none;fillColor=none;align=left;verticalAlign=top;spacingLeft=4;spacingRight=4;whiteSpace=wrap;overflow=hidden;rotatable=0;points=[[0,0.5],[1,0.5]];portConstraint=eastwest;" vertex="1" parent="ZMdeqj-k6j3ySzZ1tK9_-1">
          <mxGeometry y="164" width="280" height="26" as="geometry" />
        </mxCell>
        <mxCell id="ZMdeqj-k6j3ySzZ1tK9_-15" value="+ GetEventsOverlappingWith(from, to): Events" style="text;html=1;strokeColor=none;fillColor=none;align=left;verticalAlign=top;spacingLeft=4;spacingRight=4;whiteSpace=wrap;overflow=hidden;rotatable=0;points=[[0,0.5],[1,0.5]];portConstraint=eastwest;" vertex="1" parent="ZMdeqj-k6j3ySzZ1tK9_-1">
          <mxGeometry y="190" width="280" height="26" as="geometry" />
        </mxCell>
        <mxCell id="ZMdeqj-k6j3ySzZ1tK9_-16" value="+ GetEventsOverlappingWithOfType(event, type): Events" style="text;html=1;strokeColor=none;fillColor=none;align=left;verticalAlign=top;spacingLeft=4;spacingRight=4;whiteSpace=wrap;overflow=hidden;rotatable=0;points=[[0,0.5],[1,0.5]];portConstraint=eastwest;" vertex="1" parent="ZMdeqj-k6j3ySzZ1tK9_-1">
          <mxGeometry y="216" width="280" height="34" as="geometry" />
        </mxCell>
        <mxCell id="ZMdeqj-k6j3ySzZ1tK9_-17" value="+ GetEventsOverlappingWithNotOfType" style="text;html=1;strokeColor=none;fillColor=none;align=left;verticalAlign=top;spacingLeft=4;spacingRight=4;whiteSpace=wrap;overflow=hidden;rotatable=0;points=[[0,0.5],[1,0.5]];portConstraint=eastwest;" vertex="1" parent="ZMdeqj-k6j3ySzZ1tK9_-1">
          <mxGeometry y="250" width="280" height="26" as="geometry" />
        </mxCell>
        <mxCell id="ZMdeqj-k6j3ySzZ1tK9_-18" value="+ GetDTO(): DataTypes.User (DTO)" style="text;html=1;strokeColor=none;fillColor=none;align=left;verticalAlign=top;spacingLeft=4;spacingRight=4;whiteSpace=wrap;overflow=hidden;rotatable=0;points=[[0,0.5],[1,0.5]];portConstraint=eastwest;" vertex="1" parent="ZMdeqj-k6j3ySzZ1tK9_-1">
          <mxGeometry y="276" width="280" height="26" as="geometry" />
        </mxCell>
        <mxCell id="ZMdeqj-k6j3ySzZ1tK9_-19" value="" style="endArrow=none;html=1;" edge="1" parent="ZMdeqj-k6j3ySzZ1tK9_-1">
          <mxGeometry width="50" height="50" relative="1" as="geometry">
            <mxPoint y="302" as="sourcePoint" />
            <mxPoint x="280" y="302" as="targetPoint" />
          </mxGeometry>
        </mxCell>
        <mxCell id="ZMdeqj-k6j3ySzZ1tK9_-21" value="+ Create(user): User&amp;nbsp; &amp;nbsp;&amp;lt;&amp;lt;static&amp;gt;&amp;gt;&amp;nbsp;" style="text;html=1;strokeColor=none;fillColor=none;align=left;verticalAlign=top;spacingLeft=4;spacingRight=4;whiteSpace=wrap;overflow=hidden;rotatable=0;points=[[0,0.5],[1,0.5]];portConstraint=eastwest;" vertex="1" parent="ZMdeqj-k6j3ySzZ1tK9_-1">
          <mxGeometry y="302" width="280" height="26" as="geometry" />
        </mxCell>
        <mxCell id="ZMdeqj-k6j3ySzZ1tK9_-22" value="+ Find(id): User&amp;nbsp; &amp;nbsp; &amp;nbsp; &amp;nbsp; &amp;nbsp; &amp;nbsp;&amp;lt;&amp;lt;static&amp;gt;&amp;gt;" style="text;html=1;strokeColor=none;fillColor=none;align=left;verticalAlign=top;spacingLeft=4;spacingRight=4;whiteSpace=wrap;overflow=hidden;rotatable=0;points=[[0,0.5],[1,0.5]];portConstraint=eastwest;" vertex="1" parent="ZMdeqj-k6j3ySzZ1tK9_-1">
          <mxGeometry y="328" width="280" height="26" as="geometry" />
        </mxCell>
        <mxCell id="ZMdeqj-k6j3ySzZ1tK9_-23" value="+ FindByUsernamePassword(login, password)" style="text;html=1;strokeColor=none;fillColor=none;align=left;verticalAlign=top;spacingLeft=4;spacingRight=4;whiteSpace=wrap;overflow=hidden;rotatable=0;points=[[0,0.5],[1,0.5]];portConstraint=eastwest;" vertex="1" parent="ZMdeqj-k6j3ySzZ1tK9_-1">
          <mxGeometry y="354" width="280" height="26" as="geometry" />
        </mxCell>
        <mxCell id="ZMdeqj-k6j3ySzZ1tK9_-24" value="+ FindByRole(role): Users&amp;nbsp; &amp;lt;&amp;lt; static&amp;gt;&amp;gt;" style="text;html=1;strokeColor=none;fillColor=none;align=left;verticalAlign=top;spacingLeft=4;spacingRight=4;whiteSpace=wrap;overflow=hidden;rotatable=0;points=[[0,0.5],[1,0.5]];portConstraint=eastwest;" vertex="1" parent="ZMdeqj-k6j3ySzZ1tK9_-1">
          <mxGeometry y="380" width="280" height="26" as="geometry" />
        </mxCell>
        <mxCell id="ZMdeqj-k6j3ySzZ1tK9_-25" value="+ All(): Users&amp;nbsp; &amp;nbsp; &amp;nbsp; &amp;nbsp; &amp;nbsp; &amp;nbsp; &amp;nbsp; &amp;nbsp;&amp;lt;&amp;lt;static&amp;gt;&amp;gt;" style="text;html=1;strokeColor=none;fillColor=none;align=left;verticalAlign=top;spacingLeft=4;spacingRight=4;whiteSpace=wrap;overflow=hidden;rotatable=0;points=[[0,0.5],[1,0.5]];portConstraint=eastwest;" vertex="1" parent="ZMdeqj-k6j3ySzZ1tK9_-1">
          <mxGeometry y="406" width="280" height="26" as="geometry" />
        </mxCell>
      </root>
    </mxGraphModel>
  </diagram>
</mxfile>
